Coordinates
version=1
nRows=24
nColumns=24
inDegrees=yes

Units are S.I. units (second, meters, Newtons, ...)
Angles are in degrees.

endheader
time	torso_tilt	torso_list	torso_rotation	torso_tx	torso_ty	torso_tz	lumbar_extension	lumbar_bending	lumbar_rotation	hip_flexion_r	hip_adduction_r	hip_rotation_r	knee_angle_r	ankle_angle_r	subtalar_angle_r	mtp_angle_r	hip_flexion_l	hip_adduction_l	hip_rotation_l	knee_angle_l	ankle_angle_l	subtalar_angle_l	mtp_angle_l
     43.78000000	    -15.56395187	     -0.10161534	     13.17209048	     -0.09853244	      1.04683612	      0.04319924	      8.00694090	      0.84328184	     -8.35706638	     -7.81339364	      2.56848947	    -10.31332721	    -31.12690578	    -24.65243656	     -1.69833503	      0.00000000	     26.08216048	      7.92469335	      7.39321250	    -22.34341030	     15.50923200	      4.62946602	      0.00000000
     43.79000000	    -15.43853125	     -0.14454950	     13.31164070	     -0.09854009	      1.04466314	      0.04239296	      7.84062017	      0.60165950	     -8.12163546	     -7.31343279	      2.80650649	    -10.55476968	    -35.12729312	    -24.98955965	     -0.19121169	      0.00000000	     25.04347581	      7.84102462	      8.57260079	    -17.49286863	     15.57205284	      4.21860708	      0.00000000
     43.80000000	    -15.29864386	     -0.24956730	     13.27567266	     -0.09875586	      1.04149833	      0.04180591	      7.72281467	      0.60069538	     -7.80933242	     -6.67057532	      2.86518593	    -10.69392450	    -39.42418301	    -25.12117765	      0.85891787	      0.00000000	     24.13356042	      7.84473390	      9.55965271	    -13.46415468	     15.43790738	      3.02837477	      0.00000000
     43.81000000	    -15.20257921	     -0.35431212	     13.15738056	     -0.09942255	      1.03723450	      0.04124395	      7.93491027	      0.63971829	     -7.43324820	     -6.27699427	      2.77766063	    -10.97207363	    -43.83896174	    -24.91935515	      1.48916378	      0.00000000	     23.08309184	      7.92612557	     10.31866279	    -10.37159420	     15.56558344	      1.73047483	      0.00000000
     43.82000000	    -15.16189355	     -0.44861734	     13.04318867	     -0.10025936	      1.03184130	      0.04087860	      8.39674916	      0.73378190	     -7.07072924	     -6.04218311	      2.50967300	    -11.30416652	    -48.29442881	    -24.56641397	      2.14115636	      0.00000000	     22.13401814	      8.15420671	     10.68355937	     -8.59224598	     15.66808926	      0.49544000	      0.00000000
     43.83000000	    -15.10763631	     -0.50374039	     12.80475852	     -0.10126193	      1.02545188	      0.04021779	      9.08020271	      0.79306432	     -6.64858374	     -6.07782049	      2.10233383	    -11.66916520	    -52.73978175	    -23.96633992	      3.15169127	      0.00000000	     21.22053478	      8.47937729	     10.64161782	     -8.14576707	     15.74307995	      1.02899008	      0.00000000
     43.84000000	    -15.06437511	     -0.53744984	     12.55338734	     -0.10251180	      1.01842753	      0.03946526	      9.87885571	      0.95914323	     -6.16193787	     -6.20275143	      1.39469525	    -12.23638699	    -57.21704207	    -23.15561054	      4.60300120	      0.00000000	     20.58741819	      8.99589356	     10.30826475	     -9.20784862	     15.33572715	      1.57126530	      0.00000000
     43.85000000	    -14.99876102	     -0.62069338	     12.24111287	     -0.10371351	      1.01052461	      0.03912088	     10.69029750	      1.40781976	     -5.49096029	     -6.29998318	      0.36945626	    -12.96130469	    -61.74417405	    -21.66551196	      6.28274909	      0.00000000	     20.23315830	      9.77843104	      9.96512217	    -11.58368027	     12.40018832	      0.66606408	      0.00000000
     43.86000000	    -14.97886066	     -0.65467845	     11.84824852	     -0.10524002	      1.00146229	      0.03848887	     11.70790481	      1.72273387	     -4.75288026	     -6.58070269	     -0.66445732	    -13.76514891	    -66.24223948	    -19.85477360	      7.50288050	      0.00000000	     19.90432050	     10.49870595	      9.03534854	    -15.06516348	      9.00628047	      0.07605728	      0.00000000
     43.87000000	    -14.96601041	     -0.67145384	     11.47713208	     -0.10677868	      0.99178468	      0.03791215	     12.78945807	      2.05732155	     -4.06155206	     -6.92996989	     -1.80623978	    -14.59831894	    -70.64334645	    -17.93803406	      8.01725003	      0.00000000	     19.54339833	     11.17120312	      7.85403786	    -18.80577722	      7.01448761	     -1.64808523	      0.00000000
     43.88000000	    -15.03069860	     -0.73367708	     10.94683260	     -0.10894415	      0.98165945	      0.03739113	     13.78304309	      2.66865371	     -3.11158700	     -6.90953386	     -3.26632613	    -15.60648469	    -75.23446426	    -15.84601915	      8.15580684	      0.00000000	     19.62874802	     12.18817154	      6.79143956	    -23.30952660	      9.61996153	     -1.89622816	      0.00000000
     43.89000000	    -15.21925729	     -0.87802408	     10.22947725	     -0.11194982	      0.97148428	      0.03713752	     14.50800170	      3.33020866	     -1.70611268	     -6.31688417	     -4.60258077	    -16.85350466	    -79.84418967	    -13.47345751	      7.41393288	      0.00000000	     20.69732456	     13.10964146	      5.45075472	    -29.18718801	     14.63296358	     -0.52187720	      0.00000000
     43.90000000	    -15.56461293	     -1.07967529	      9.34020526	     -0.11550256	      0.96198243	      0.03710928	     15.20277116	      3.88450649	      0.05509713	     -5.46181518	     -5.63443222	    -18.06445893	    -84.15963133	    -10.81994632	      6.52014167	      0.00000000	     22.06067394	     13.81293044	      4.87497167	    -35.28285239	     18.79351415	      0.62040942	      0.00000000
     43.91000000	    -16.06049586	     -1.29428863	      8.55702951	     -0.11932111	      0.95390801	      0.03748870	     16.13145524	      4.25621495	      1.56932855	     -4.59213895	     -6.35748227	    -18.95972324	    -87.97856872	     -7.69386038	      5.48287521	      0.00000000	     22.88705545	     14.30140116	      5.10169077	    -40.72683502	     22.71603993	      2.13833538	      0.00000000
     43.92000000	    -16.77512743	     -1.46869308	      7.84662416	     -0.12368732	      0.94706477	      0.03843492	     17.81595500	      4.59580827	      2.76874885	     -4.18273940	     -6.99068040	    -19.53234627	    -91.18799183	     -4.53981287	      4.50312631	      0.00000000	     22.26459694	     14.67368565	      5.77227083	    -44.59704225	     25.58677897	      2.96228637	      0.00000000
     43.93000000	    -17.37297428	     -1.63609141	      7.40539017	     -0.12729669	      0.94154625	      0.03961706	     19.34953884	      4.96483712	      3.37793372	     -3.60252399	     -7.62814505	    -19.68858020	    -93.88887218	     -1.63630472	      3.40823003	      0.00000000	     20.89521799	     14.95563188	      6.47121716	    -47.01892328	     27.88196398	      3.14074339	      0.00000000
     43.94000000	    -17.70133455	     -1.80116359	      6.93449462	     -0.12978323	      0.93791361	      0.04070309	     19.78458240	      5.14475074	      3.72631445	     -1.83074668	     -7.91976443	    -19.38560686	    -96.22460312	      0.84473747	      1.98322967	      0.00000000	     19.88550191	     14.77264394	      6.91730455	    -48.39454231	     29.82133673	      3.19282604	      0.00000000
     43.95000000	    -17.87148305	     -1.86566275	      6.16737178	     -0.13160781	      0.93590402	      0.04142719	     19.51578549	      5.20944165	      4.06380835	      0.76038081	     -7.98709114	    -18.64020003	    -98.14929251	      3.13412840	      0.40121487	      0.00000000	     18.99241601	     14.30044993	      7.21569608	    -48.91653186	     31.29572840	      2.89341746	      0.00000000
     43.96000000	    -17.89113445	     -1.86974692	      5.19053017	     -0.13237513	      0.93560531	      0.04201490	     18.96486162	      5.23421984	      4.38181814	      3.48196173	     -7.82250799	    -17.63120253	    -99.36798336	      5.16615807	     -1.18708761	      0.00000000	     17.85434102	     13.51125599	      7.09164180	    -48.82473019	     32.80398685	      3.17823334	      0.00000000
     43.97000000	    -17.94068430	     -1.78062410	      4.04625578	     -0.13317127	      0.93698387	      0.04230942	     18.14434096	      5.00355251	      4.85696088	      6.66148432	     -7.29735539	    -16.49445073	    -99.97703645	      7.04285645	     -2.78540045	      0.00000000	     16.84514198	     12.34756374	      6.63428020	    -48.23946597	     34.13120377	      4.06008454	      0.00000000
     43.98000000	    -18.09333971	     -1.56746117	      2.77483407	     -0.13444136	      0.94010994	      0.04212626	     17.33522342	      4.71377916	      5.22649752	     10.07912771	     -6.78101884	    -15.04985650	   -100.06301830	      8.31546056	     -4.14293397	      0.00000000	     15.65698840	     11.16002916	      5.81847451	    -46.83922363	     34.78278613	      4.53194293	      0.00000000
     43.99000000	    -18.30973890	     -1.16379843	      1.50866134	     -0.13608531	      0.94438024	      0.04149061	     16.68605180	      4.13566363	      5.50025785	     13.40165018	     -6.07212183	    -13.58459435	    -99.46967660	      9.31147934	     -5.24352670	      0.00000000	     14.24836109	      9.82897935	      4.66401869	    -45.11210345	     35.32640024	      5.45305834	      0.00000000
     44.00000000	    -18.54474196	     -0.72298832	      0.10445246	     -0.13791461	      0.94945113	      0.04068665	     16.20134279	      3.44126455	      5.89278664	     16.46828616	     -5.11464755	    -12.19249581	    -98.22664564	      9.74441223	     -5.78059006	      0.00000000	     12.57903743	      8.41116734	      3.42108790	    -43.05832241	     35.18851074	      6.20467885	      0.00000000
     44.01000000	    -18.60539688	     -0.30357201	     -1.51409482	     -0.13901961	      0.95562506	      0.03989535	     15.77365804	      2.66235887	      6.44940255	     18.97034871	     -3.80624395	    -10.94740300	    -96.18062187	     10.41066726	     -6.10764592	      0.00000000	     10.42138760	      6.85879506	      2.21761845	    -40.53903956	     34.33601580	      6.82323878	      0.00000000
